<svg width="61" height="62" viewBox="0 0 61 62" fill="none" xmlns="http://www.w3.org/2000/svg">
<rect x="0.5" y="1" width="60" height="60" rx="30" fill="#E63946" stroke="#F9F9F9" stroke-width="0.8"/>
<g clip-path="url(#clip0_22_4879)">
<path fill-rule="evenodd" clip-rule="evenodd" d="M44.0986 41.9135C43.7895 41.9135 43.5386 41.5736 43.5386 41.1548V16.8761C43.5386 16.4588 43.2878 16.1174 42.9787 16.1174H17.2214C16.9123 16.1174 16.6614 16.4588 16.6614 16.8761V41.1548C16.6614 41.5736 16.4106 41.9135 16.1015 41.9135C15.7924 41.9135 15.5416 41.5736 15.5416 41.1548V16.8761C15.5416 15.6212 16.2952 14.6 17.2214 14.6H42.9787C43.9048 14.6 44.6585 15.6212 44.6585 16.8761V41.1548C44.6585 41.5736 44.4077 41.9135 44.0986 41.9135H44.0986Z" fill="white"/>
<path fill-rule="evenodd" clip-rule="evenodd" d="M44.0998 47.9811H16.0998C14.5553 47.9811 13.2998 46.2801 13.2998 44.1876C13.2998 43.7688 13.5507 43.4289 13.8598 43.4289H26.1798C26.4889 43.4289 26.7398 43.7688 26.7398 44.1876C26.7398 44.6064 26.4889 44.9463 26.1798 44.9463H14.5161C14.7468 45.8294 15.3696 46.4637 16.0998 46.4637H44.0998C44.83 46.4637 45.4528 45.8294 45.6835 44.9463H34.0198C33.7107 44.9463 33.4598 44.6064 33.4598 44.1876C33.4598 43.7688 33.7107 43.4289 34.0198 43.4289H46.3398C46.6489 43.4289 46.8998 43.7688 46.8998 44.1876C46.8998 46.2801 45.6443 47.9811 44.0998 47.9811Z" fill="white"/>
<path fill-rule="evenodd" clip-rule="evenodd" d="M25.0582 36.2949C24.9272 36.2949 24.7962 36.2327 24.6898 36.1068L20.2115 30.797C20.0894 30.6529 20.02 30.4465 20.02 30.2266C20.02 30.0066 20.0894 29.8003 20.2115 29.6561L24.6898 24.3463C24.9216 24.0687 25.2742 24.099 25.4802 24.4176C25.684 24.7332 25.6605 25.2111 25.4276 25.4872L21.4296 30.2266L25.4265 34.9659C25.6594 35.2421 25.6829 35.7199 25.4791 36.0355C25.3683 36.2069 25.2138 36.2949 25.0582 36.2949L25.0582 36.2949Z" fill="white"/>
<path fill-rule="evenodd" clip-rule="evenodd" d="M28.4191 37.8165C28.3609 37.8165 28.3015 37.8044 28.2421 37.7786C27.9485 37.645 27.7905 37.2154 27.888 36.8177L31.2497 23.1566C31.3472 22.759 31.6621 22.5419 31.9579 22.677C32.2515 22.8106 32.4095 23.2401 32.3121 23.6378L28.9503 37.2989C28.8718 37.6146 28.6533 37.8165 28.4191 37.8165Z" fill="white"/>
<path fill-rule="evenodd" clip-rule="evenodd" d="M35.1387 36.2949C34.983 36.2949 34.8284 36.2069 34.7175 36.0355C34.5136 35.72 34.5371 35.2421 34.7701 34.966L38.7695 30.2269L34.7701 25.4877C34.5371 25.2116 34.5136 24.7338 34.7175 24.4182C34.9214 24.0997 35.2754 24.0708 35.5084 24.3469L39.9895 29.6565C40.1105 29.8006 40.1799 30.0069 40.1799 30.2269C40.1799 30.4468 40.1105 30.6531 39.9884 30.7973L35.5073 36.1068C35.4008 36.2327 35.2698 36.2949 35.1387 36.2949H35.1387Z" fill="white"/>
</g>
<defs>
<clipPath id="clip0_22_4879">
<rect width="33.6" height="33.6" fill="white" transform="translate(13.2998 14.6)"/>
</clipPath>
</defs>
</svg>
